<?xml version="1.0" encoding="utf-8"?>
<!-- Svg Vector Icons : http://www.onlinewebfonts.com/icon -->
<!DOCTYPE svg PUBLIC "-//W3C//DTD SVG 1.1//EN" "http://www.w3.org/Graphics/SVG/1.1/DTD/svg11.dtd">
<svg version="1.1" xmlns="http://www.w3.org/2000/svg" xmlns:xlink="http://www.w3.org/1999/xlink" x="0px" y="0px" viewBox="0 0 1000 1000" enable-background="new 0 0 1000 1000" xml:space="preserve">
<metadata> Svg Vector Icons : http://www.onlinewebfonts.com/icon </metadata>
<g><g transform="translate(0.000000,512.000000) scale(0.100000,-0.100000)"><path d="M4533.5,5000.2c-911.6-93.8-1754.2-423.2-2489.5-972.8c-247-183.8-766-702.8-949.9-949.9c-1127.9-1511-1309.9-3472-474.9-5143.8c233.6-473,490.2-833,869.4-1221.8c432.8-444.3,806.2-716.2,1359.7-990.1c488.3-241.3,976.7-388.8,1551.2-471.1c226-32.5,980.5-32.5,1206.5,0c890.5,126.4,1666.1,444.3,2361.2,965.2c227.9,170.4,649.2,578.4,836.9,810.1c524.7,645.4,894.3,1461.2,1032.2,2278.9c101.5,597.5,80.4,1327.1-53.6,1905.5c-157,670.3-455.8,1309.9-879,1874.8c-176.2,235.6-697.1,758.4-932.6,934.5c-674.1,503.6-1413.3,815.8-2234.9,944.1C5450.8,5009.7,4805.5,5028.9,4533.5,5000.2z M5464.2,4791.4C7072.9,4630.6,8488.1,3652,9204.3,2206.1c226-455.8,365.8-903.9,446.2-1417.1c47.9-310.2,47.9-1034.1,0-1340.5c-155.1-993.9-580.3-1865.3-1254.4-2568.1c-708.6-741.1-1581.8-1206.5-2608.3-1390.4c-254.7-45.9-321.7-51.7-785.2-51.7c-463.4,0-530.5,5.8-785.2,51.7c-501.7,90-900.1,222.2-1346.3,448.1C1724.2-3481.5,850.9-2424.4,494.7-1191.2C14,480.7,483.2,2261.7,1722.3,3472c363.9,356.2,714.3,607.1,1168.2,836.9c511.3,258.5,1064.8,423.2,1614.4,480.7C4738.4,4812.5,5234.4,4814.4,5464.2,4791.4z"/><path d="M2888.5,2393.8c-74.7-266.2-260.4-972.8-260.4-999.6c0-15.3,15.3-32.6,34.5-36.4c17.2-5.8-72.8-9.6-203-11.5c-130.2,0-252.8-11.5-273.9-21.1c-36.4-19.2-36.4-57.5-36.4-1512.9c0-1455.4,0-1493.7,36.4-1512.9c24.9-13.4,720.1-19.2,2116.1-19.2h2079.7l32.6,51.7c19.2,28.7,126.4,210.7,237.5,406l203,356.2l141.7,13.4c308.3,26.8,536.2,208.8,624.3,501.7l34.5,111.1l220.2-9.6c243.2-9.6,319.8-32.5,432.8-132.1c84.3-74.7,160.9-227.9,160.9-321.7c0-99.6,47.9-157.1,120.6-149.4c82.3,7.7,105.3,74.7,74.7,220.2c-47.9,231.7-197.2,423.2-402.2,519c-97.7,46-136,51.7-361.9,57.5l-250.9,7.7l-23,86.2c-47.9,195.3-183.8,360-373.4,453.9c-57.5,26.8-105.3,57.5-107.2,65.1c0,7.7-28.7,206.8-61.3,442.4l-61.3,430.9l-526.6,139.8c-1183.5,317.9-3516,946-3546.7,955.6C2924.9,2493.4,2911.5,2472.3,2888.5,2393.8z M4734.6,1796.3c1677.6-450,2087.4-561.1,2098.9-572.6c11.5-9.6,101.5-609,103.4-670.3c0-24.9-11.5-32.6-40.2-28.7c-32.6,3.8-91.9,93.8-245.1,361.9c-111.1,195.3-218.3,377.3-237.5,406l-32.6,51.7H4598.6c-1687.1,0-1781,1.9-1771.4,34.5c5.7,17.2,59.4,214.5,118.7,434.7c59.4,222.1,111.1,407.9,114.9,415.6c3.8,5.7,101.5-11.5,214.5-42.1C3388.3,2156.3,4045.2,1980.1,4734.6,1796.3z M6643.9,482.6c203-352.4,369.6-653,369.6-668.3c0-36.4-233.6-444.3-262.4-455.8c-32.6-13.4-153.2,65.1-191.5,120.7c-28.7,44-26.8,53.6,21.1,139.8c53.6,99.6,67,241.3,32.5,333.2C6584.5,26.8,6479.2,136,6395,180c-61.3,30.6-103.4,36.4-195.3,30.6c-139.8-7.7-229.8-59.4-312.1-176.2c-46-67-51.7-93.8-51.7-222.1c0-128.3,5.7-155.1,51.7-222.2c88.1-124.5,172.4-168.5,333.2-176.2c132.1-7.7,143.6-11.5,189.6-70.8c24.9-36.4,90-91.9,143.6-126.4l93.8-61.3l-46-78.5c-24.9-44.1-109.2-189.6-185.8-327.5l-139.8-249l-1968.7-5.8l-1966.7-3.8v1321.4v1321.4l1966.7-3.8l1966.7-5.7L6643.9,482.6z M7325.7,139.8C7394.6,63.2,7454-88.1,7454-187.7c0-197.3-157-415.6-344.7-478.8c-57.5-19.2-107.2-28.7-111.1-19.2c-3.8,9.6,51.7,118.7,120.6,241.3l128.3,226L7226.1-46c-11.5,95.8-26.8,203-34.5,239.4c-9.6,59.4-7.6,61.3,26.8,44.1C7239.5,226,7287.4,181.9,7325.7,139.8z M6237.9-187.7c0-114.9-7.7-210.7-15.3-210.7c-55.5,0-149.4,68.9-178.1,130.2c-46,97.7-7.7,208.8,88.1,256.6C6169,7.6,6209.2,23,6218.8,23C6232.2,23,6239.8-53.6,6237.9-187.7z"/><path d="M2898.1,323.6c-36.4-13.4-84.3-47.9-105.3-76.6c-38.3-51.7-40.2-78.5-40.2-434.7c0-436.7,9.6-465.4,162.8-515.2c113-36.4,220.2-1.9,281.5,91.9c42.1,61.3,44,82.3,44,421.3c0,402.2-15.3,457.7-143.6,511.3C3018.7,354.3,2984.3,354.3,2898.1,323.6z M3068.5,145.5c11.5-26.8,19.2-176.2,19.2-333.2c0-316-13.4-383-82.3-383c-84.3,0-90,26.8-90,383c0,356.2,5.7,383,90,383C3036,195.3,3057,180,3068.5,145.5z"/><path d="M3355.8-187.7v-517.1h76.6h76.6v210.7v210.7h105.3h105.3v76.6v76.6h-105.3H3509V23v153.2H3643h134.1v76.6v76.6h-210.7h-210.7V-187.7z"/><path d="M3853.7-187.7v-517.1h86.2h86.2V-496v210.7l101.5,5.7l99.6,5.8l5.7,72.8l5.8,70.9h-105.3H4026V23v151.3l130.2,5.8l128.3,5.7l5.7,72.8l5.8,70.9h-220.2h-222.1V-187.7z"/><path d="M4370.8-187.7v-517.1h222.1h220.2l-5.8,72.7l-5.7,70.9l-137.9,5.7l-139.8,5.8v151.3v153.2h114.9h114.9v67v67h-114.9h-114.9V32.6v141.7l139.8,5.8l137.9,5.7l5.7,72.8l5.8,70.9h-220.2h-222.1V-187.7z"/><path d="M4907-187.7v-517.1h76.6h76.6v210.7v210.7h53.6c95.8,0,118.7-47.9,118.7-245.1v-176.2h88.1c82.3,0,88.1,3.8,76.6,44c-5.7,23-11.5,113-11.5,199.2c0,139.8-5.7,162.8-49.8,214.5c-26.8,32.6-40.2,59.4-28.7,59.4c40.2,0,78.5,113,78.5,239.4c0,227.9-59.4,277.7-327.5,277.7H4907V-187.7z M5209.5,153.2c30.6-30.6,30.6-229.8,0-260.4c-13.4-13.4-51.7-23-86.2-23h-63.2V23v153.2h63.2C5157.8,176.2,5196.1,166.6,5209.5,153.2z"/></g></g>
</svg>